<mxfile host="app.diagrams.net" modified="2020-08-27T09:06:34.136Z" agent="5.0 (Windows)" etag="VhTPZSRWuWPPIuN19RPA" version="13.6.5" type="github">
  <diagram id="C5RBs43oDa-KdzZeNtuy" name="Page-1">
    <mxGraphModel dx="1038" dy="547" grid="1" gridSize="10" guides="1" tooltips="1" connect="1" arrows="1" fold="1" page="1" pageScale="1" pageWidth="1169" pageHeight="827" math="0" shadow="0">
      <root>
        <mxCell id="WIyWlLk6GJQsqaUBKTNV-0" />
        <mxCell id="WIyWlLk6GJQsqaUBKTNV-1" parent="WIyWlLk6GJQsqaUBKTNV-0" />
        <mxCell id="v0qozQEDlWZfjRou27Cd-0" value="HR - Staff Exit" style="swimlane;html=1;childLayout=stackLayout;resizeParent=1;resizeParentMax=0;horizontal=1;startSize=20;horizontalStack=0;" vertex="1" parent="WIyWlLk6GJQsqaUBKTNV-1">
          <mxGeometry x="35" y="10" width="1125" height="690" as="geometry" />
        </mxCell>
        <mxCell id="v0qozQEDlWZfjRou27Cd-1" value="Staff" style="swimlane;html=1;startSize=20;horizontal=0;" vertex="1" parent="v0qozQEDlWZfjRou27Cd-0">
          <mxGeometry y="20" width="1125" height="170" as="geometry" />
        </mxCell>
        <mxCell id="v0qozQEDlWZfjRou27Cd-6" value="Start" style="rounded=1;whiteSpace=wrap;html=1;" vertex="1" parent="v0qozQEDlWZfjRou27Cd-1">
          <mxGeometry x="80" y="10" width="110" height="40" as="geometry" />
        </mxCell>
        <mxCell id="v0qozQEDlWZfjRou27Cd-24" value="Resignation acceptance letter" style="shape=document;whiteSpace=wrap;html=1;boundedLbl=1;" vertex="1" parent="v0qozQEDlWZfjRou27Cd-1">
          <mxGeometry x="365" y="60" width="120" height="80" as="geometry" />
        </mxCell>
        <mxCell id="v0qozQEDlWZfjRou27Cd-9" value="Issuance of notice for separation" style="rounded=0;whiteSpace=wrap;html=1;" vertex="1" parent="v0qozQEDlWZfjRou27Cd-1">
          <mxGeometry x="75" y="128" width="120" height="60" as="geometry" />
        </mxCell>
        <mxCell id="v0qozQEDlWZfjRou27Cd-8" value="" style="edgeStyle=orthogonalEdgeStyle;rounded=0;orthogonalLoop=1;jettySize=auto;html=1;entryX=0.5;entryY=0;entryDx=0;entryDy=0;" edge="1" parent="v0qozQEDlWZfjRou27Cd-1" source="v0qozQEDlWZfjRou27Cd-6" target="v0qozQEDlWZfjRou27Cd-9">
          <mxGeometry relative="1" as="geometry">
            <mxPoint x="135" y="130" as="targetPoint" />
          </mxGeometry>
        </mxCell>
        <mxCell id="v0qozQEDlWZfjRou27Cd-11" value="Type of separation" style="shape=parallelogram;perimeter=parallelogramPerimeter;whiteSpace=wrap;html=1;fixedSize=1;" vertex="1" parent="v0qozQEDlWZfjRou27Cd-1">
          <mxGeometry x="232" y="128" width="120" height="60" as="geometry" />
        </mxCell>
        <mxCell id="v0qozQEDlWZfjRou27Cd-12" value="" style="endArrow=classic;html=1;entryX=1;entryY=0.5;entryDx=0;entryDy=0;exitX=0;exitY=0.5;exitDx=0;exitDy=0;" edge="1" parent="v0qozQEDlWZfjRou27Cd-1" source="v0qozQEDlWZfjRou27Cd-11" target="v0qozQEDlWZfjRou27Cd-9">
          <mxGeometry width="50" height="50" relative="1" as="geometry">
            <mxPoint x="290" y="159" as="sourcePoint" />
            <mxPoint x="190" y="159" as="targetPoint" />
          </mxGeometry>
        </mxCell>
        <mxCell id="v0qozQEDlWZfjRou27Cd-35" value="Fill discharge voucher and File in HR" style="whiteSpace=wrap;html=1;rounded=0;" vertex="1" parent="v0qozQEDlWZfjRou27Cd-1">
          <mxGeometry x="800" y="117" width="120" height="60" as="geometry" />
        </mxCell>
        <mxCell id="v0qozQEDlWZfjRou27Cd-2" value="HRM" style="swimlane;html=1;startSize=20;horizontal=0;" vertex="1" parent="v0qozQEDlWZfjRou27Cd-0">
          <mxGeometry y="190" width="1125" height="120" as="geometry" />
        </mxCell>
        <mxCell id="v0qozQEDlWZfjRou27Cd-13" value="Initiated by staff" style="rhombus;whiteSpace=wrap;html=1;rounded=0;" vertex="1" parent="v0qozQEDlWZfjRou27Cd-2">
          <mxGeometry x="95" y="30" width="80" height="80" as="geometry" />
        </mxCell>
        <mxCell id="v0qozQEDlWZfjRou27Cd-33" value="Review final dues payment" style="rounded=0;whiteSpace=wrap;html=1;" vertex="1" parent="v0qozQEDlWZfjRou27Cd-2">
          <mxGeometry x="800" y="40" width="120" height="60" as="geometry" />
        </mxCell>
        <mxCell id="v0qozQEDlWZfjRou27Cd-39" value="End" style="rounded=1;whiteSpace=wrap;html=1;" vertex="1" parent="v0qozQEDlWZfjRou27Cd-2">
          <mxGeometry x="948" y="40" width="120" height="50" as="geometry" />
        </mxCell>
        <mxCell id="v0qozQEDlWZfjRou27Cd-3" value="HOD" style="swimlane;html=1;startSize=20;horizontal=0;" vertex="1" parent="v0qozQEDlWZfjRou27Cd-0">
          <mxGeometry y="310" width="1125" height="140" as="geometry" />
        </mxCell>
        <mxCell id="v0qozQEDlWZfjRou27Cd-40" value="yes" style="text;html=1;strokeColor=none;fillColor=none;align=center;verticalAlign=middle;whiteSpace=wrap;rounded=0;" vertex="1" parent="v0qozQEDlWZfjRou27Cd-3">
          <mxGeometry x="126" y="11" width="40" height="20" as="geometry" />
        </mxCell>
        <mxCell id="v0qozQEDlWZfjRou27Cd-31" value="Process the final dues" style="whiteSpace=wrap;html=1;" vertex="1" parent="v0qozQEDlWZfjRou27Cd-3">
          <mxGeometry x="534" y="299" width="120" height="60" as="geometry" />
        </mxCell>
        <mxCell id="v0qozQEDlWZfjRou27Cd-20" value="Approve and issue Acceptance Letter" style="whiteSpace=wrap;html=1;rounded=0;" vertex="1" parent="v0qozQEDlWZfjRou27Cd-3">
          <mxGeometry x="75" y="163" width="120" height="60" as="geometry" />
        </mxCell>
        <mxCell id="v0qozQEDlWZfjRou27Cd-4" value="CEO" style="swimlane;html=1;startSize=20;horizontal=0;" vertex="1" parent="v0qozQEDlWZfjRou27Cd-0">
          <mxGeometry y="450" width="1125" height="120" as="geometry" />
        </mxCell>
        <mxCell id="v0qozQEDlWZfjRou27Cd-5" value="Finance" style="swimlane;html=1;startSize=20;horizontal=0;" vertex="1" parent="v0qozQEDlWZfjRou27Cd-0">
          <mxGeometry y="570" width="1125" height="120" as="geometry" />
        </mxCell>
        <mxCell id="v0qozQEDlWZfjRou27Cd-16" value="" style="endArrow=classic;html=1;exitX=0.5;exitY=1;exitDx=0;exitDy=0;entryX=0.5;entryY=0;entryDx=0;entryDy=0;" edge="1" parent="v0qozQEDlWZfjRou27Cd-0" source="v0qozQEDlWZfjRou27Cd-9" target="v0qozQEDlWZfjRou27Cd-13">
          <mxGeometry width="50" height="50" relative="1" as="geometry">
            <mxPoint x="490" y="260" as="sourcePoint" />
            <mxPoint x="540" y="210" as="targetPoint" />
          </mxGeometry>
        </mxCell>
        <mxCell id="v0qozQEDlWZfjRou27Cd-21" value="" style="edgeStyle=orthogonalEdgeStyle;rounded=0;orthogonalLoop=1;jettySize=auto;html=1;" edge="1" parent="v0qozQEDlWZfjRou27Cd-0" source="v0qozQEDlWZfjRou27Cd-13" target="v0qozQEDlWZfjRou27Cd-20">
          <mxGeometry relative="1" as="geometry" />
        </mxCell>
        <mxCell id="v0qozQEDlWZfjRou27Cd-23" value="" style="edgeStyle=orthogonalEdgeStyle;rounded=0;orthogonalLoop=1;jettySize=auto;html=1;entryX=0.5;entryY=0.863;entryDx=0;entryDy=0;entryPerimeter=0;" edge="1" parent="v0qozQEDlWZfjRou27Cd-0" source="v0qozQEDlWZfjRou27Cd-20" target="v0qozQEDlWZfjRou27Cd-24">
          <mxGeometry relative="1" as="geometry">
            <mxPoint x="410" y="503" as="targetPoint" />
          </mxGeometry>
        </mxCell>
        <mxCell id="v0qozQEDlWZfjRou27Cd-34" value="" style="endArrow=classic;html=1;exitX=1;exitY=0.5;exitDx=0;exitDy=0;entryX=0.5;entryY=1;entryDx=0;entryDy=0;" edge="1" parent="v0qozQEDlWZfjRou27Cd-0" source="v0qozQEDlWZfjRou27Cd-31" target="v0qozQEDlWZfjRou27Cd-33">
          <mxGeometry width="50" height="50" relative="1" as="geometry">
            <mxPoint x="670" y="640" as="sourcePoint" />
            <mxPoint x="720" y="590" as="targetPoint" />
            <Array as="points">
              <mxPoint x="860" y="639" />
            </Array>
          </mxGeometry>
        </mxCell>
        <mxCell id="v0qozQEDlWZfjRou27Cd-36" value="" style="edgeStyle=orthogonalEdgeStyle;rounded=0;orthogonalLoop=1;jettySize=auto;html=1;" edge="1" parent="v0qozQEDlWZfjRou27Cd-0" source="v0qozQEDlWZfjRou27Cd-33" target="v0qozQEDlWZfjRou27Cd-35">
          <mxGeometry relative="1" as="geometry" />
        </mxCell>
        <mxCell id="v0qozQEDlWZfjRou27Cd-38" value="" style="edgeStyle=orthogonalEdgeStyle;rounded=0;orthogonalLoop=1;jettySize=auto;html=1;entryX=0.5;entryY=0;entryDx=0;entryDy=0;" edge="1" parent="v0qozQEDlWZfjRou27Cd-0" source="v0qozQEDlWZfjRou27Cd-35" target="v0qozQEDlWZfjRou27Cd-39">
          <mxGeometry relative="1" as="geometry">
            <mxPoint x="1007" y="228" as="targetPoint" />
          </mxGeometry>
        </mxCell>
        <mxCell id="v0qozQEDlWZfjRou27Cd-28" value="" style="edgeStyle=orthogonalEdgeStyle;rounded=0;orthogonalLoop=1;jettySize=auto;html=1;" edge="1" parent="WIyWlLk6GJQsqaUBKTNV-1" source="v0qozQEDlWZfjRou27Cd-25" target="v0qozQEDlWZfjRou27Cd-27">
          <mxGeometry relative="1" as="geometry" />
        </mxCell>
        <mxCell id="v0qozQEDlWZfjRou27Cd-25" value="Complete clearance process" style="whiteSpace=wrap;html=1;" vertex="1" parent="WIyWlLk6GJQsqaUBKTNV-1">
          <mxGeometry x="552" y="100" width="93" height="60" as="geometry" />
        </mxCell>
        <mxCell id="v0qozQEDlWZfjRou27Cd-26" value="" style="edgeStyle=orthogonalEdgeStyle;rounded=0;orthogonalLoop=1;jettySize=auto;html=1;" edge="1" parent="WIyWlLk6GJQsqaUBKTNV-1" source="v0qozQEDlWZfjRou27Cd-24" target="v0qozQEDlWZfjRou27Cd-25">
          <mxGeometry relative="1" as="geometry" />
        </mxCell>
        <mxCell id="v0qozQEDlWZfjRou27Cd-30" value="" style="edgeStyle=orthogonalEdgeStyle;rounded=0;orthogonalLoop=1;jettySize=auto;html=1;" edge="1" parent="WIyWlLk6GJQsqaUBKTNV-1" source="v0qozQEDlWZfjRou27Cd-27" target="v0qozQEDlWZfjRou27Cd-29">
          <mxGeometry relative="1" as="geometry" />
        </mxCell>
        <mxCell id="v0qozQEDlWZfjRou27Cd-27" value="Confirm clearance and liabilities" style="whiteSpace=wrap;html=1;" vertex="1" parent="WIyWlLk6GJQsqaUBKTNV-1">
          <mxGeometry x="552" y="240" width="93" height="60" as="geometry" />
        </mxCell>
        <mxCell id="v0qozQEDlWZfjRou27Cd-32" value="" style="edgeStyle=orthogonalEdgeStyle;rounded=0;orthogonalLoop=1;jettySize=auto;html=1;" edge="1" parent="WIyWlLk6GJQsqaUBKTNV-1" source="v0qozQEDlWZfjRou27Cd-29" target="v0qozQEDlWZfjRou27Cd-31">
          <mxGeometry relative="1" as="geometry" />
        </mxCell>
        <mxCell id="v0qozQEDlWZfjRou27Cd-29" value="Issue certificate of service and notify finance" style="whiteSpace=wrap;html=1;" vertex="1" parent="WIyWlLk6GJQsqaUBKTNV-1">
          <mxGeometry x="689" y="240" width="120" height="60" as="geometry" />
        </mxCell>
        <mxCell id="v0qozQEDlWZfjRou27Cd-41" value="HOD is notified" style="shape=process;whiteSpace=wrap;html=1;backgroundOutline=1;" vertex="1" parent="WIyWlLk6GJQsqaUBKTNV-1">
          <mxGeometry x="260" y="356" width="120" height="60" as="geometry" />
        </mxCell>
        <mxCell id="v0qozQEDlWZfjRou27Cd-42" value="" style="endArrow=classic;html=1;entryX=0.008;entryY=0.4;entryDx=0;entryDy=0;entryPerimeter=0;" edge="1" parent="WIyWlLk6GJQsqaUBKTNV-1" target="v0qozQEDlWZfjRou27Cd-41">
          <mxGeometry width="50" height="50" relative="1" as="geometry">
            <mxPoint x="170" y="380" as="sourcePoint" />
            <mxPoint x="370" y="350" as="targetPoint" />
          </mxGeometry>
        </mxCell>
        <mxCell id="v0qozQEDlWZfjRou27Cd-43" value="" style="endArrow=classic;html=1;exitX=1;exitY=0.5;exitDx=0;exitDy=0;entryX=0.5;entryY=0;entryDx=0;entryDy=0;" edge="1" parent="WIyWlLk6GJQsqaUBKTNV-1" source="v0qozQEDlWZfjRou27Cd-13" target="v0qozQEDlWZfjRou27Cd-25">
          <mxGeometry width="50" height="50" relative="1" as="geometry">
            <mxPoint x="320" y="370" as="sourcePoint" />
            <mxPoint x="600" y="160" as="targetPoint" />
            <Array as="points">
              <mxPoint x="390" y="270" />
              <mxPoint x="390" y="70" />
              <mxPoint x="599" y="70" />
            </Array>
          </mxGeometry>
        </mxCell>
      </root>
    </mxGraphModel>
  </diagram>
</mxfile>
